<svg width="295" height="48" viewBox="0 0 295 48" fill="none" xmlns="http://www.w3.org/2000/svg">
<g clip-path="url(#clip0_2001_269)">
<path d="M33.0945 28.3353L38.1862 33.0406L40.8144 30.3863V30.4354C40.8144 36.2891 36.052 41.0514 30.1983 41.0514C24.3447 41.0514 19.5824 36.289 19.5824 30.4354V29.3592C19.3502 29.4063 19.1117 29.4358 18.8686 29.4469C18.4961 32.9135 16.0032 35.7208 14.0371 37.4308C16.706 43.7413 22.9642 48 30.1983 48C39.8834 48 47.7629 40.1206 47.7629 30.4355V12.723L33.0945 28.3353Z" fill="#FF7F00"/>
<path d="M15.3034 13.5772H17.059H18.652C19.0761 13.5772 19.4868 13.635 19.8778 13.7414V9.1766C20.8978 8.20638 21.5356 6.83787 21.5356 5.32231C21.5355 2.3875 19.1479 0 16.2132 0C13.2785 0 10.8909 2.3875 10.8909 5.32231C10.8909 6.80611 11.5018 8.14944 12.4846 9.11562V13.6584C12.7787 13.6065 13.0967 13.5773 13.4417 13.5773L15.3034 13.5772ZM16.2132 2.81877C17.5936 2.81877 18.7168 3.94186 18.7168 5.32231C18.7168 6.70275 17.5937 7.82594 16.2132 7.82594C14.8328 7.82594 13.7096 6.70285 13.7096 5.32231C13.7096 3.94186 14.8327 2.81877 16.2132 2.81877Z" fill="#FF7F00"/>
<path d="M12.9336 16.4398C13.0102 16.9098 13.0829 17.4545 13.1343 18.0511C13.583 18.4671 14.3088 19.1788 15.0971 20.1054H18.6519C19.6747 20.1054 20.5066 19.2734 20.5066 18.2508C20.5066 17.228 19.6747 16.396 18.6519 16.396H13.4417C13.2464 16.3959 13.079 16.4118 12.9336 16.4398Z" fill="#FF7F00"/>
<path d="M18.6821 26.6322C19.6909 26.616 20.5067 25.7916 20.5067 24.779C20.5067 23.7562 19.6748 22.9242 18.6521 22.9242H17.1333C17.8083 24.0584 18.3795 25.315 18.6821 26.6322Z" fill="#FF7F00"/>
<path d="M16.0818 28.9749C16.273 26.4575 14.5631 23.8399 13.0493 22.0473C12.7995 23.7759 12.2194 25.5417 11.0573 27.0185C10.0076 28.3523 8.6174 29.2749 7.16357 29.9126C7.60105 32.3198 9.63761 34.8415 11.0127 36.2414C12.6025 35.0689 15.8294 32.2986 16.0818 28.9749Z" fill="#FF7F00"/>
<path d="M0.56739 28.4863C2.53339 28.4005 6.77489 27.9024 8.84217 25.2753C10.9057 22.653 10.4376 18.4227 10.0756 16.4754C8.08486 16.566 3.81771 17.0742 1.75372 19.6973C-0.17451 22.1475 0.121648 26.2306 0.56739 28.4863Z" fill="#FF7F00"/>
</g>
<path d="M65.7216 32.5V15.0455H76.9034V17.696H68.8835V22.4347H76.1364V25.0852H68.8835V32.5H65.7216ZM79.6477 32.5V19.4091H82.733V32.5H79.6477ZM81.1989 17.5511C80.7102 17.5511 80.2898 17.3892 79.9375 17.0653C79.5852 16.7358 79.4091 16.3409 79.4091 15.8807C79.4091 15.4148 79.5852 15.0199 79.9375 14.696C80.2898 14.3665 80.7102 14.2017 81.1989 14.2017C81.6932 14.2017 82.1136 14.3665 82.4602 14.696C82.8125 15.0199 82.9886 15.4148 82.9886 15.8807C82.9886 16.3409 82.8125 16.7358 82.4602 17.0653C82.1136 17.3892 81.6932 17.5511 81.1989 17.5511ZM96.2521 22.8693L93.4396 23.1761C93.3601 22.892 93.2209 22.625 93.022 22.375C92.8288 22.125 92.5675 21.9233 92.2379 21.7699C91.9084 21.6165 91.505 21.5398 91.0277 21.5398C90.3857 21.5398 89.8459 21.679 89.4084 21.9574C88.9766 22.2358 88.7635 22.5966 88.7692 23.0398C88.7635 23.4205 88.9027 23.7301 89.1868 23.9688C89.4766 24.2074 89.9538 24.4034 90.6186 24.5568L92.8516 25.0341C94.0902 25.3011 95.0107 25.7244 95.6129 26.304C96.2209 26.8835 96.5277 27.642 96.5334 28.5795C96.5277 29.4034 96.2862 30.1307 95.8089 30.7614C95.3374 31.3864 94.6811 31.875 93.8402 32.2273C92.9993 32.5795 92.0334 32.7557 90.9425 32.7557C89.3402 32.7557 88.0504 32.4205 87.0732 31.75C86.0959 31.0739 85.5135 30.1335 85.326 28.929L88.3345 28.6392C88.4709 29.2301 88.7607 29.6761 89.2038 29.9773C89.647 30.2784 90.2237 30.429 90.9339 30.429C91.6669 30.429 92.255 30.2784 92.6982 29.9773C93.147 29.6761 93.3714 29.304 93.3714 28.8608C93.3714 28.4858 93.2266 28.1761 92.9368 27.9318C92.6527 27.6875 92.2095 27.5 91.6072 27.3693L89.3743 26.9006C88.1186 26.6392 87.1896 26.1989 86.5874 25.5795C85.9851 24.9545 85.6868 24.1648 85.6925 23.2102C85.6868 22.4034 85.9055 21.7045 86.3487 21.1136C86.7976 20.517 87.4197 20.0568 88.2152 19.733C89.0163 19.4034 89.9396 19.2386 90.9851 19.2386C92.5192 19.2386 93.7266 19.5653 94.6072 20.2188C95.4936 20.8722 96.0419 21.7557 96.2521 22.8693ZM102.163 24.8295V32.5H99.0774V15.0455H102.094V21.6335H102.248C102.555 20.8949 103.029 20.3125 103.671 19.8864C104.319 19.4545 105.143 19.2386 106.143 19.2386C107.052 19.2386 107.844 19.429 108.521 19.8097C109.197 20.1903 109.719 20.7472 110.089 21.4801C110.464 22.2131 110.651 23.108 110.651 24.1648V32.5H107.566V24.642C107.566 23.7614 107.339 23.0767 106.884 22.5881C106.435 22.0937 105.805 21.8466 104.992 21.8466C104.447 21.8466 103.958 21.9659 103.526 22.2045C103.1 22.4375 102.765 22.7756 102.521 23.2188C102.282 23.6619 102.163 24.1989 102.163 24.8295ZM113.796 32.5V19.4091H116.881V32.5H113.796ZM115.347 17.5511C114.859 17.5511 114.438 17.3892 114.086 17.0653C113.734 16.7358 113.558 16.3409 113.558 15.8807C113.558 15.4148 113.734 15.0199 114.086 14.696C114.438 14.3665 114.859 14.2017 115.347 14.2017C115.842 14.2017 116.262 14.3665 116.609 14.696C116.961 15.0199 117.137 15.4148 117.137 15.8807C117.137 16.3409 116.961 16.7358 116.609 17.0653C116.262 17.3892 115.842 17.5511 115.347 17.5511ZM123.139 24.8295V32.5H120.054V19.4091H123.003V21.6335H123.156C123.457 20.9006 123.938 20.3182 124.597 19.8864C125.261 19.4545 126.082 19.2386 127.06 19.2386C127.963 19.2386 128.75 19.4318 129.42 19.8182C130.097 20.2045 130.619 20.7642 130.989 21.4972C131.364 22.2301 131.548 23.1193 131.543 24.1648V32.5H128.457V24.642C128.457 23.767 128.23 23.0824 127.776 22.5881C127.327 22.0937 126.705 21.8466 125.909 21.8466C125.369 21.8466 124.889 21.9659 124.469 22.2045C124.054 22.4375 123.727 22.7756 123.489 23.2188C123.256 23.6619 123.139 24.1989 123.139 24.8295ZM140.372 37.6818C139.264 37.6818 138.313 37.5313 137.517 37.2301C136.722 36.9347 136.082 36.5369 135.599 36.0369C135.116 35.5369 134.781 34.983 134.594 34.375L137.372 33.7017C137.497 33.9574 137.679 34.2102 137.918 34.4602C138.156 34.7159 138.477 34.9261 138.881 35.0909C139.29 35.2614 139.804 35.3466 140.423 35.3466C141.298 35.3466 142.023 35.1335 142.597 34.7074C143.17 34.2869 143.457 33.5938 143.457 32.6278V30.1477H143.304C143.145 30.4659 142.912 30.7926 142.605 31.1278C142.304 31.4631 141.903 31.7443 141.403 31.9716C140.909 32.1989 140.287 32.3125 139.537 32.3125C138.531 32.3125 137.619 32.0767 136.801 31.6051C135.989 31.1278 135.341 30.4176 134.858 29.4744C134.381 28.5256 134.142 27.3381 134.142 25.9119C134.142 24.4744 134.381 23.2614 134.858 22.2727C135.341 21.2784 135.991 20.5256 136.81 20.0142C137.628 19.4972 138.54 19.2386 139.545 19.2386C140.313 19.2386 140.943 19.3693 141.438 19.6307C141.938 19.8864 142.335 20.196 142.631 20.5597C142.926 20.9176 143.151 21.2557 143.304 21.5739H143.474V19.4091H146.517V32.7131C146.517 33.8324 146.25 34.7585 145.716 35.4915C145.182 36.2244 144.452 36.7727 143.526 37.1364C142.599 37.5 141.548 37.6818 140.372 37.6818ZM140.398 29.892C141.051 29.892 141.608 29.733 142.068 29.4148C142.528 29.0966 142.878 28.6392 143.116 28.0426C143.355 27.446 143.474 26.7301 143.474 25.8949C143.474 25.071 143.355 24.3494 143.116 23.7301C142.884 23.1108 142.537 22.6307 142.077 22.2898C141.622 21.9432 141.063 21.7699 140.398 21.7699C139.71 21.7699 139.136 21.9489 138.676 22.3068C138.216 22.6648 137.869 23.1562 137.636 23.7812C137.403 24.4006 137.287 25.1051 137.287 25.8949C137.287 26.696 137.403 27.3977 137.636 28C137.875 28.5966 138.224 29.0625 138.685 29.3977C139.151 29.7273 139.722 29.892 140.398 29.892ZM159.301 19.8438C159.222 19.0994 158.886 18.5199 158.295 18.1051C157.71 17.6903 156.949 17.483 156.011 17.483C155.352 17.483 154.787 17.5824 154.315 17.7812C153.844 17.9801 153.483 18.25 153.233 18.5909C152.983 18.9318 152.855 19.321 152.849 19.7585C152.849 20.1222 152.932 20.4375 153.097 20.7045C153.267 20.9716 153.497 21.1989 153.787 21.3864C154.077 21.5682 154.398 21.7216 154.75 21.8466C155.102 21.9716 155.457 22.0767 155.815 22.1619L157.452 22.571C158.111 22.7244 158.744 22.9318 159.352 23.1932C159.966 23.4545 160.514 23.7841 160.997 24.1818C161.486 24.5795 161.872 25.0597 162.156 25.6222C162.44 26.1847 162.582 26.8437 162.582 27.5994C162.582 28.6222 162.321 29.5227 161.798 30.3011C161.276 31.0739 160.52 31.679 159.531 32.1165C158.548 32.5483 157.358 32.7642 155.96 32.7642C154.602 32.7642 153.423 32.554 152.423 32.1335C151.429 31.7131 150.651 31.0994 150.088 30.2926C149.531 29.4858 149.23 28.5028 149.185 27.3438H152.295C152.341 27.9517 152.528 28.4574 152.858 28.8608C153.188 29.2642 153.616 29.5653 154.145 29.7642C154.679 29.9631 155.276 30.0625 155.935 30.0625C156.622 30.0625 157.224 29.9602 157.741 29.7557C158.264 29.5455 158.673 29.2557 158.969 28.8864C159.264 28.5114 159.415 28.0739 159.42 27.5739C159.415 27.1193 159.281 26.7443 159.02 26.4489C158.759 26.1477 158.392 25.8977 157.92 25.6989C157.455 25.4943 156.909 25.3125 156.284 25.1534L154.298 24.642C152.861 24.2727 151.724 23.7131 150.889 22.9631C150.06 22.2074 149.645 21.2045 149.645 19.9545C149.645 18.9261 149.923 18.0256 150.48 17.2528C151.043 16.4801 151.807 15.8807 152.773 15.4545C153.739 15.0227 154.832 14.8068 156.054 14.8068C157.293 14.8068 158.378 15.0227 159.31 15.4545C160.247 15.8807 160.983 16.4744 161.517 17.2358C162.051 17.9915 162.327 18.8608 162.344 19.8438H159.301ZM165.265 37.4091V19.4091H168.299V21.5739H168.478C168.637 21.2557 168.862 20.9176 169.151 20.5597C169.441 20.196 169.833 19.8864 170.327 19.6307C170.822 19.3693 171.452 19.2386 172.219 19.2386C173.231 19.2386 174.143 19.4972 174.955 20.0142C175.773 20.5256 176.421 21.2841 176.898 22.2898C177.381 23.2898 177.623 24.517 177.623 25.9716C177.623 27.4091 177.387 28.6307 176.915 29.6364C176.444 30.642 175.802 31.4091 174.989 31.9375C174.177 32.4659 173.256 32.7301 172.228 32.7301C171.478 32.7301 170.856 32.6051 170.362 32.3551C169.867 32.1051 169.469 31.804 169.168 31.4517C168.873 31.0937 168.643 30.7557 168.478 30.4375H168.35V37.4091H165.265ZM168.29 25.9545C168.29 26.8011 168.41 27.5426 168.648 28.179C168.893 28.8153 169.242 29.3125 169.697 29.6705C170.157 30.0227 170.714 30.1989 171.367 30.1989C172.049 30.1989 172.62 30.017 173.08 29.6534C173.54 29.2841 173.887 28.7812 174.12 28.1449C174.359 27.5028 174.478 26.7727 174.478 25.9545C174.478 25.142 174.362 24.4205 174.129 23.7898C173.896 23.1591 173.549 22.6648 173.089 22.3068C172.629 21.9489 172.055 21.7699 171.367 21.7699C170.708 21.7699 170.148 21.9432 169.688 22.2898C169.228 22.6364 168.879 23.1222 168.64 23.7472C168.407 24.3722 168.29 25.108 168.29 25.9545ZM185.975 32.7557C184.697 32.7557 183.589 32.4744 182.651 31.9119C181.714 31.3494 180.987 30.5625 180.469 29.5511C179.958 28.5398 179.702 27.358 179.702 26.0057C179.702 24.6534 179.958 23.4687 180.469 22.4517C180.987 21.4347 181.714 20.6449 182.651 20.0824C183.589 19.5199 184.697 19.2386 185.975 19.2386C187.254 19.2386 188.362 19.5199 189.299 20.0824C190.237 20.6449 190.961 21.4347 191.472 22.4517C191.989 23.4687 192.248 24.6534 192.248 26.0057C192.248 27.358 191.989 28.5398 191.472 29.5511C190.961 30.5625 190.237 31.3494 189.299 31.9119C188.362 32.4744 187.254 32.7557 185.975 32.7557ZM185.992 30.2841C186.685 30.2841 187.265 30.0937 187.731 29.7131C188.197 29.3267 188.543 28.8097 188.771 28.1619C189.004 27.5142 189.12 26.7926 189.12 25.9972C189.12 25.196 189.004 24.4716 188.771 23.8239C188.543 23.1705 188.197 22.6506 187.731 22.2642C187.265 21.8778 186.685 21.6847 185.992 21.6847C185.282 21.6847 184.691 21.8778 184.219 22.2642C183.754 22.6506 183.404 23.1705 183.171 23.8239C182.944 24.4716 182.83 25.196 182.83 25.9972C182.83 26.7926 182.944 27.5142 183.171 28.1619C183.404 28.8097 183.754 29.3267 184.219 29.7131C184.691 30.0937 185.282 30.2841 185.992 30.2841ZM201.403 19.4091V21.7955H193.878V19.4091H201.403ZM195.736 16.2727H198.821V28.5625C198.821 28.9773 198.884 29.2955 199.009 29.517C199.139 29.733 199.31 29.8807 199.52 29.9602C199.73 30.0398 199.963 30.0795 200.219 30.0795C200.412 30.0795 200.588 30.0653 200.747 30.0369C200.912 30.0085 201.037 29.983 201.122 29.9602L201.642 32.3722C201.477 32.429 201.241 32.4915 200.935 32.5597C200.634 32.6278 200.264 32.6676 199.827 32.679C199.054 32.7017 198.358 32.5852 197.739 32.3295C197.119 32.0682 196.628 31.6648 196.264 31.1193C195.906 30.5739 195.73 29.892 195.736 29.0739V16.2727Z" fill="#006994"/>
<path d="M210.073 32.5V15.0455H216.619C217.96 15.0455 219.085 15.2784 219.994 15.7443C220.908 16.2102 221.599 16.8636 222.065 17.7045C222.536 18.5398 222.772 19.5142 222.772 20.6278C222.772 21.7472 222.533 22.7187 222.056 23.5426C221.585 24.3608 220.888 24.9943 219.968 25.4432C219.048 25.8864 217.917 26.108 216.576 26.108H211.914V23.483H216.15C216.934 23.483 217.576 23.375 218.076 23.1591C218.576 22.9375 218.945 22.6165 219.184 22.196C219.428 21.7699 219.55 21.2472 219.55 20.6278C219.55 20.0085 219.428 19.4801 219.184 19.0426C218.94 18.5994 218.567 18.2642 218.067 18.0369C217.567 17.804 216.923 17.6875 216.133 17.6875H213.235V32.5H210.073ZM219.09 24.5909L223.411 32.5H219.883L215.638 24.5909H219.09ZM231.154 32.7557C229.842 32.7557 228.708 32.483 227.754 31.9375C226.805 31.3864 226.075 30.608 225.563 29.6023C225.052 28.5909 224.796 27.4006 224.796 26.0312C224.796 24.6847 225.052 23.5028 225.563 22.4858C226.08 21.4631 226.802 20.6676 227.728 20.0994C228.654 19.5256 229.742 19.2386 230.992 19.2386C231.799 19.2386 232.56 19.3693 233.276 19.6307C233.998 19.8864 234.634 20.2841 235.185 20.8239C235.742 21.3636 236.18 22.0511 236.498 22.8864C236.816 23.7159 236.975 24.7045 236.975 25.8523V26.7983H226.245V24.7188H234.018C234.012 24.1278 233.884 23.6023 233.634 23.142C233.384 22.6761 233.035 22.3097 232.586 22.0426C232.143 21.7756 231.626 21.642 231.035 21.642C230.404 21.642 229.85 21.7955 229.373 22.1023C228.896 22.4034 228.523 22.8011 228.256 23.2955C227.995 23.7841 227.862 24.321 227.856 24.9062V26.7216C227.856 27.483 227.995 28.1364 228.273 28.6818C228.552 29.2216 228.941 29.6364 229.441 29.9261C229.941 30.2102 230.526 30.3523 231.197 30.3523C231.646 30.3523 232.052 30.2898 232.415 30.1648C232.779 30.0341 233.094 29.8438 233.362 29.5938C233.629 29.3438 233.83 29.0341 233.967 28.6648L236.847 28.9886C236.665 29.75 236.319 30.4148 235.808 30.983C235.302 31.5455 234.654 31.983 233.864 32.2955C233.075 32.6023 232.171 32.7557 231.154 32.7557ZM242.67 24.8295V32.5H239.585V19.4091H242.534V21.6335H242.688C242.989 20.9006 243.469 20.3182 244.128 19.8864C244.793 19.4545 245.614 19.2386 246.591 19.2386C247.494 19.2386 248.281 19.4318 248.952 19.8182C249.628 20.2045 250.151 20.7642 250.52 21.4972C250.895 22.2301 251.08 23.1193 251.074 24.1648V32.5H247.989V24.642C247.989 23.767 247.761 23.0824 247.307 22.5881C246.858 22.0937 246.236 21.8466 245.44 21.8466C244.901 21.8466 244.42 21.9659 244 22.2045C243.585 22.4375 243.259 22.7756 243.02 23.2188C242.787 23.6619 242.67 24.1989 242.67 24.8295ZM260.747 19.4091V21.7955H253.222V19.4091H260.747ZM255.08 16.2727H258.165V28.5625C258.165 28.9773 258.227 29.2955 258.352 29.517C258.483 29.733 258.653 29.8807 258.864 29.9602C259.074 30.0398 259.307 30.0795 259.562 30.0795C259.756 30.0795 259.932 30.0653 260.091 30.0369C260.256 30.0085 260.381 29.983 260.466 29.9602L260.986 32.3722C260.821 32.429 260.585 32.4915 260.278 32.5597C259.977 32.6278 259.608 32.6676 259.17 32.679C258.398 32.7017 257.702 32.5852 257.082 32.3295C256.463 32.0682 255.972 31.6648 255.608 31.1193C255.25 30.5739 255.074 29.892 255.08 29.0739V16.2727ZM267.094 32.7642C266.265 32.7642 265.518 32.6165 264.853 32.321C264.194 32.0199 263.671 31.5767 263.285 30.9915C262.904 30.4062 262.714 29.6847 262.714 28.8267C262.714 28.0881 262.85 27.4773 263.123 26.9943C263.396 26.5114 263.768 26.125 264.239 25.8352C264.711 25.5455 265.242 25.3267 265.833 25.179C266.43 25.0256 267.046 24.9148 267.683 24.8466C268.45 24.767 269.072 24.696 269.549 24.6335C270.026 24.5653 270.373 24.4631 270.589 24.3267C270.81 24.1847 270.921 23.9659 270.921 23.6705V23.6193C270.921 22.9773 270.731 22.4801 270.35 22.1278C269.969 21.7756 269.421 21.5994 268.705 21.5994C267.95 21.5994 267.35 21.7642 266.907 22.0938C266.469 22.4233 266.174 22.8125 266.021 23.2614L263.14 22.8523C263.367 22.0568 263.742 21.392 264.265 20.858C264.788 20.3182 265.427 19.9148 266.183 19.6477C266.938 19.375 267.773 19.2386 268.688 19.2386C269.319 19.2386 269.947 19.3125 270.572 19.4602C271.197 19.608 271.768 19.8523 272.285 20.1932C272.802 20.5284 273.217 20.9858 273.529 21.5653C273.847 22.1449 274.006 22.8693 274.006 23.7386V32.5H271.04V30.7017H270.938C270.751 31.0653 270.487 31.4062 270.146 31.7244C269.81 32.0369 269.387 32.2898 268.876 32.483C268.37 32.6705 267.776 32.7642 267.094 32.7642ZM267.896 30.4972C268.515 30.4972 269.052 30.375 269.506 30.1307C269.961 29.8807 270.31 29.5511 270.555 29.142C270.805 28.733 270.93 28.2869 270.93 27.804V26.2614C270.833 26.3409 270.668 26.4148 270.435 26.483C270.208 26.5511 269.952 26.6108 269.668 26.6619C269.384 26.7131 269.103 26.7585 268.825 26.7983C268.546 26.8381 268.305 26.8722 268.1 26.9006C267.64 26.9631 267.228 27.0653 266.864 27.2074C266.501 27.3494 266.214 27.5483 266.004 27.804C265.793 28.054 265.688 28.3778 265.688 28.7756C265.688 29.3438 265.896 29.7727 266.31 30.0625C266.725 30.3523 267.254 30.4972 267.896 30.4972ZM280.194 15.0455V32.5H277.109V15.0455H280.194ZM293.713 22.8693L290.901 23.1761C290.821 22.892 290.682 22.625 290.483 22.375C290.29 22.125 290.028 21.9233 289.699 21.7699C289.369 21.6165 288.966 21.5398 288.489 21.5398C287.847 21.5398 287.307 21.679 286.869 21.9574C286.438 22.2358 286.224 22.5966 286.23 23.0398C286.224 23.4205 286.364 23.7301 286.648 23.9688C286.938 24.2074 287.415 24.4034 288.08 24.5568L290.312 25.0341C291.551 25.3011 292.472 25.7244 293.074 26.304C293.682 26.8835 293.989 27.642 293.994 28.5795C293.989 29.4034 293.747 30.1307 293.27 30.7614C292.798 31.3864 292.142 31.875 291.301 32.2273C290.46 32.5795 289.494 32.7557 288.403 32.7557C286.801 32.7557 285.511 32.4205 284.534 31.75C283.557 31.0739 282.974 30.1335 282.787 28.929L285.795 28.6392C285.932 29.2301 286.222 29.6761 286.665 29.9773C287.108 30.2784 287.685 30.429 288.395 30.429C289.128 30.429 289.716 30.2784 290.159 29.9773C290.608 29.6761 290.832 29.304 290.832 28.8608C290.832 28.4858 290.688 28.1761 290.398 27.9318C290.114 27.6875 289.67 27.5 289.068 27.3693L286.835 26.9006C285.58 26.6392 284.651 26.1989 284.048 25.5795C283.446 24.9545 283.148 24.1648 283.153 23.2102C283.148 22.4034 283.366 21.7045 283.81 21.1136C284.259 20.517 284.881 20.0568 285.676 19.733C286.477 19.4034 287.401 19.2386 288.446 19.2386C289.98 19.2386 291.188 19.5653 292.068 20.2188C292.955 20.8722 293.503 21.7557 293.713 22.8693Z" fill="#FF7F00"/>
<defs>
<clipPath id="clip0_2001_269">
<rect width="48" height="48" fill="white"/>
</clipPath>
</defs>
</svg>
