<svg width="18" height="18" viewBox="0 0 18 18" fill="none" xmlns="http://www.w3.org/2000/svg">
<path d="M2.41453 9.39792L7.47703 14.4604C7.58258 14.566 7.72573 14.6253 7.875 14.6253C8.02427 14.6253 8.16742 14.566 8.27297 14.4604C8.37852 14.3549 8.43781 14.2117 8.43781 14.0624C8.43781 13.9132 8.37852 13.77 8.27297 13.6645L4.17023 9.56245H15.1875C15.3367 9.56245 15.4798 9.50318 15.5852 9.39769C15.6907 9.29221 15.75 9.14913 15.75 8.99995C15.75 8.85076 15.6907 8.70769 15.5852 8.6022C15.4798 8.49671 15.3367 8.43745 15.1875 8.43745H4.17023L8.27297 4.33542C8.37852 4.22987 8.43781 4.08671 8.43781 3.93745C8.43781 3.78818 8.37852 3.64503 8.27297 3.53948C8.16742 3.43393 8.02427 3.37463 7.875 3.37463C7.72573 3.37463 7.58258 3.43393 7.47703 3.53948L2.41453 8.60198C2.36223 8.65422 2.32074 8.71626 2.29243 8.78454C2.26413 8.85283 2.24956 8.92603 2.24956 8.99995C2.24956 9.07387 2.26413 9.14706 2.29243 9.21535C2.32074 9.28364 2.36223 9.34567 2.41453 9.39792Z" fill="#2C2C2E"/>
</svg>
